<?xml version="1.0" encoding="utf-8"?>
<!-- Generator: Adobe Illustrator 27.9.0, SVG Export Plug-In . SVG Version: 6.00 Build 0)  -->
<svg version="1.1" id="Layer_1" xmlns="http://www.w3.org/2000/svg" xmlns:xlink="http://www.w3.org/1999/xlink" x="0px" y="0px"
	 viewBox="0 0 489.2 123.4" style="enable-background:new 0 0 489.2 123.4;" xml:space="preserve">
<style type="text/css">
	.st0{fill:#312922;}
</style>
<g>
	<g>
		<g>
			<path class="st0" d="M44,0H26.3v2.8c3,0.2,5.2,0.6,6.6,1.1c1.4,0.6,2.4,1.6,2.9,3.2c0.5,1.6,0.7,4.1,0.7,7.7v93.7
				c0,3.6-0.2,6.1-0.7,7.7c-0.5,1.6-1.5,2.6-2.9,3.2c-1.4,0.6-3.6,0.9-6.6,1.1v2.8H44V0z"/>
			<path class="st0" d="M93.1,101.2h-1.9c-1.5,4-3.4,7.5-5.7,10.4c-1.2,1.5-2.4,2.8-3.7,3.9c-3.7,3.1-7.8,4.7-12.5,4.7h-5
				c-1.7,0-3.1-0.1-4.2-0.3c-0.5-0.1-1-0.2-1.4-0.4c-1.2-0.5-2-1.4-2.4-2.7c-0.4-1.3-0.7-3.5-0.7-6.5V14.9c0-3.6,0.3-6.1,0.8-7.7
				c0.5-1.6,1.6-2.6,3.1-3.2c1.5-0.6,3.9-0.9,7.2-1.1V0H48.3v123.4h10.9h13.6h20.2C92.5,117.6,92.1,110.2,93.1,101.2z"/>
		</g>
		<g>
			<path class="st0" d="M17.7,12.1H0v2.8C3,15,5.2,15.4,6.6,16c1.4,0.6,2.4,1.6,2.9,3.2c0.5,1.6,0.7,4.1,0.7,7.7v69.6
				c0,3.6-0.2,6.1-0.7,7.7c-0.5,1.6-1.5,2.6-2.9,3.2C5.2,108,3,108.4,0,108.6v2.8h17.7V12.1z"/>
			<polygon class="st0" points="22,12.1 22,111.4 29.5,111.4 29.5,96.8 29.5,26.6 29.5,12.1 			"/>
		</g>
		<g>
			<path class="st0" d="M61.6,100.1v1.3c0.5-0.3,1.1-0.6,1.6-0.9c5.5-3.6,9.8-8.9,12.8-15.5c3-6.7,4.5-14.8,4.5-23.8
				c0-14-3.1-24.8-9.1-32c-2.6-3.1-5.9-5.6-9.7-7.4v2.4c0.6,0.7,1.1,1.4,1.6,2.2c4.8,7.5,7.2,19.3,7.2,35.3c0,16-2.3,27.9-7,35.8
				C62.8,98.4,62.2,99.2,61.6,100.1z"/>
			<path class="st0" d="M79.8,25c-4.8-4.5-10.9-7.7-18.3-9.8v2.3c5.1,2,9.4,5.1,12.8,9.1c6.6,8,10,19.6,10,34.6
				c0,9.6-1.6,18.2-4.8,25.4c-3.3,7.3-8,13.1-14.2,17.2c-1.2,0.8-2.4,1.5-3.7,2.1v2.4c2.2-0.8,4.3-1.7,6.3-2.7
				c8.2-4.2,14.5-10.1,18.8-17.7c4.3-7.6,6.5-16.5,6.5-26.7C93.1,45.3,88.7,33.2,79.8,25z"/>
		</g>
	</g>
	<g>
		<g>
			<path class="st0" d="M181.7,34.2v6.9h-36V14.6h-3.8V7.7h39.2v6.9h-27v19.6H181.7z M148.7,48v6.8H192v17.5h8.4V48H148.7z M192,6.2
				v37.2h8.4V28.2H211v-6.8h-10.6V6.2H192z"/>
			<path class="st0" d="M253.6,54v6.8h-37.2V16.1h-3V9.2H253v6.8h-28.3v15.3h22.9v6.8h-22.9V54H253.6z M266.5,38.5v33h8.4V6.2h-8.4
				v25.5H253v6.8H266.5z"/>
			<path class="st0" d="M283.2,58.6h24.7V31.3h8.4v27.4H347v6.8h-63.8V58.6z M288.5,9.2h53.2v34.2h-8.4V16.1h-44.8V9.2z"/>
			<path class="st0" d="M353.1,43.8h63.8v6.8h-27v10.6h-8.4V50.6h-28.5V43.8z M358.4,72.3V55.6h8.4v9.9h45.6v6.8H358.4z M385,5.3
				c3.3,0,6.4,0.7,9.3,2c2.8,1.3,5.1,3.3,6.8,5.9c1.7,2.6,2.5,5.6,2.5,9.1c0,3.4-0.8,6.4-2.5,8.9c-1.7,2.6-3.9,4.5-6.8,5.9
				c-2.8,1.4-5.9,2.1-9.3,2.1s-6.4-0.7-9.2-2.1c-2.8-1.4-5.1-3.4-6.8-5.9c-1.7-2.6-2.5-5.5-2.5-8.9c0-3.5,0.8-6.5,2.5-9.1
				c1.7-2.6,3.9-4.5,6.8-5.9C378.6,6,381.7,5.3,385,5.3z M385,32.4c2.9,0,5.3-0.9,7.3-2.7c1.9-1.8,2.9-4.3,2.9-7.4
				c0-3.1-1-5.6-2.9-7.4c-1.9-1.8-4.4-2.7-7.3-2.7c-2.9,0-5.3,0.9-7.3,2.7c-1.9,1.8-2.9,4.3-2.9,7.4c0,3.1,1,5.6,2.9,7.4
				C379.7,31.5,382.1,32.4,385,32.4z"/>
			<path class="st0" d="M466.7,39.2l-6.8,4.5l-15.5-24.2L428.7,44l-6.8-4.5l22.5-34.3L466.7,39.2z M432.9,71.5V48.8h8.4v15.9H486
				v6.8H432.9z M463.3,26.3v-6.8h12.9V6.2h8.4v42.5h-8.4V26.3H463.3z"/>
		</g>
		<g>
			<path class="st0" d="M138.7,89.7h7c2.8,0,5.2,0.5,7.2,1.5c2,1,3.5,2.5,4.6,4.4c1.1,1.9,1.6,4.2,1.6,6.8c0,2.7-0.5,5-1.6,7
				c-1,2-2.5,3.6-4.4,4.6c-1.9,1.1-4,1.6-6.3,1.6h-8.1V89.7z M155.4,102.4c0-3-0.8-5.4-2.5-7.2c-1.7-1.7-4-2.6-7.1-2.6h-3.4v19.9
				h3.6c2,0,3.7-0.4,5.2-1.3c1.4-0.9,2.5-2,3.2-3.6C155.1,106.2,155.4,104.5,155.4,102.4z"/>
			<path class="st0" d="M167.4,89.7h8c2.7,0,4.8,0.5,6.4,1.6c1.6,1.1,2.4,2.8,2.4,5c0,1.5-0.4,2.9-1.1,4.1c-0.7,1.2-1.8,2.1-3.2,2.8
				c-0.5,0.2-1.1,0.5-1.6,0.6l8,9.8l-2.7,2l-9.2-11.4h-3.4v11.1h-3.7V89.7z M175.1,101.2c1.8,0,3.2-0.4,4.1-1.3
				c0.9-0.9,1.4-2,1.4-3.4c0-1.4-0.5-2.4-1.5-3c-1-0.6-2.3-0.9-4-0.9h-4v8.5H175.1z"/>
			<path class="st0" d="M219.2,101.6H230v14h-3.7v-1.4c-0.4,0.3-0.9,0.5-1.3,0.8c-1.4,0.6-3,0.9-5,0.9c-2.5,0-4.8-0.6-6.8-1.7
				c-2-1.1-3.5-2.7-4.6-4.7c-1.1-2-1.7-4.3-1.7-6.9c0-2.6,0.6-4.9,1.7-6.9c1.1-2,2.7-3.6,4.7-4.7c2-1.1,4.3-1.7,6.8-1.7
				c1.9,0,3.6,0.3,5.2,0.8c1.6,0.6,2.8,1.3,3.8,2.1l-2.2,2.2c-1.9-1.5-4.2-2.2-6.7-2.2c-1.9,0-3.5,0.4-5,1.3
				c-1.4,0.9-2.6,2.1-3.4,3.7c-0.8,1.6-1.2,3.4-1.2,5.4c0,2,0.4,3.8,1.2,5.3c0.8,1.5,1.9,2.7,3.4,3.6c1.4,0.9,3.1,1.3,5,1.3
				c1.5,0,2.7-0.2,3.8-0.7c0.9-0.4,1.7-0.9,2.4-1.6v-6h-7.1V101.6z"/>
			<path class="st0" d="M251.8,89.3c2.6,0,4.9,0.6,6.8,1.7c2,1.1,3.5,2.7,4.7,4.7c1.1,2,1.7,4.3,1.7,6.9c0,2.6-0.6,4.9-1.7,6.9
				c-1.1,2-2.7,3.6-4.7,4.7c-2,1.1-4.3,1.7-6.8,1.7s-4.9-0.6-6.8-1.7c-2-1.1-3.5-2.7-4.7-4.7c-1.1-2-1.7-4.3-1.7-6.9
				c0-2.6,0.6-4.9,1.7-6.9c1.1-2,2.7-3.6,4.7-4.7C246.9,89.9,249.2,89.3,251.8,89.3z M251.8,112.9c1.9,0,3.5-0.4,5-1.3
				c1.4-0.9,2.6-2.1,3.4-3.7c0.8-1.6,1.2-3.4,1.2-5.4c0-2-0.4-3.8-1.2-5.3c-0.8-1.6-1.9-2.8-3.4-3.6c-1.4-0.9-3.1-1.3-5-1.3
				c-1.9,0-3.5,0.4-5,1.3c-1.4,0.9-2.6,2.1-3.4,3.7c-0.8,1.6-1.2,3.4-1.2,5.4c0,2,0.4,3.8,1.2,5.3c0.8,1.6,1.9,2.8,3.4,3.6
				C248.2,112.5,249.9,112.9,251.8,112.9z"/>
			<path class="st0" d="M275.2,89.7l5,22.1l4.8-22.1h4.1l4.6,22.4l4.9-22.4h3.6l-6,25.9h-4.9l-4.4-20.1l-4.3,20.1h-4.9l-6.1-25.9
				H275.2z"/>
			<path class="st0" d="M322,89.3c2.6,0,4.9,0.6,6.8,1.7c2,1.1,3.5,2.7,4.7,4.7c1.1,2,1.7,4.3,1.7,6.9c0,2.6-0.6,4.9-1.7,6.9
				c-1.1,2-2.7,3.6-4.7,4.7c-2,1.1-4.3,1.7-6.8,1.7c-2.6,0-4.9-0.6-6.8-1.7c-2-1.1-3.5-2.7-4.7-4.7c-1.1-2-1.7-4.3-1.7-6.9
				c0-2.6,0.6-4.9,1.7-6.9c1.1-2,2.7-3.6,4.7-4.7C317.1,89.9,319.4,89.3,322,89.3z M322,112.9c1.9,0,3.5-0.4,5-1.3
				c1.4-0.9,2.6-2.1,3.4-3.7c0.8-1.6,1.2-3.4,1.2-5.4c0-2-0.4-3.8-1.2-5.3c-0.8-1.6-1.9-2.8-3.4-3.6c-1.4-0.9-3.1-1.3-5-1.3
				c-1.9,0-3.5,0.4-5,1.3c-1.4,0.9-2.6,2.1-3.4,3.7c-0.8,1.6-1.2,3.4-1.2,5.4c0,2,0.4,3.8,1.2,5.3c0.8,1.6,1.9,2.8,3.4,3.6
				C318.4,112.5,320.1,112.9,322,112.9z"/>
			<path class="st0" d="M355.6,89.3c2.6,0,4.9,0.6,6.8,1.7c2,1.1,3.5,2.7,4.7,4.7c1.1,2,1.7,4.3,1.7,6.9c0,2.6-0.6,4.9-1.7,6.9
				c-1.1,2-2.7,3.6-4.7,4.7c-2,1.1-4.3,1.7-6.8,1.7c-2.6,0-4.9-0.6-6.8-1.7c-2-1.1-3.5-2.7-4.7-4.7c-1.1-2-1.7-4.3-1.7-6.9
				c0-2.6,0.6-4.9,1.7-6.9c1.1-2,2.7-3.6,4.7-4.7C350.7,89.9,353,89.3,355.6,89.3z M355.6,112.9c1.9,0,3.5-0.4,5-1.3
				c1.4-0.9,2.6-2.1,3.4-3.7c0.8-1.6,1.2-3.4,1.2-5.4c0-2-0.4-3.8-1.2-5.3c-0.8-1.6-1.9-2.8-3.4-3.6c-1.4-0.9-3.1-1.3-5-1.3
				c-1.9,0-3.5,0.4-5,1.3c-1.4,0.9-2.6,2.1-3.4,3.7c-0.8,1.6-1.2,3.4-1.2,5.4c0,2,0.4,3.8,1.2,5.3c0.8,1.6,1.9,2.8,3.4,3.6
				C352.1,112.5,353.7,112.9,355.6,112.9z"/>
			<path class="st0" d="M377.1,89.7h5.2l10.8,21.5V89.7h3.7v25.9h-5.2l-10.8-21.5v21.5h-3.7V89.7z"/>
			<path class="st0" d="M409.6,89.7v22.9h12.8v3H406V89.7H409.6z"/>
			<path class="st0" d="M433.8,89.7v25.9h-3.7V89.7H433.8z"/>
			<path class="st0" d="M443.1,89.7h5.2l10.8,21.5V89.7h3.7v25.9h-5.2l-10.8-21.5v21.5h-3.7V89.7z"/>
			<path class="st0" d="M472,115.6V89.7h16.5v3h-12.8v7.6h12.2v3h-12.2v9.3h13.5v3H472z"/>
		</g>
	</g>
</g>
</svg>
